<?xml version="1.0" encoding="iso-8859-1"?>
<!DOCTYPE svg PUBLIC "-//W3C//DTD SVG 1.1//EN" "http://www.w3.org/Graphics/SVG/1.1/DTD/svg11.dtd">
<svg id="ES6_LOGO" version="1.1" xmlns="http://www.w3.org/2000/svg" xmlns:xlink="http://www.w3.org/1999/xlink" x="0px" y="0px" width="100%" height="100%" viewBox="0 0 443.022 511.494" style="enable-background:new 0 0 443.022 511.494;" xml:space="preserve">
	<g>
		<polygon style="fill:#F7DD46;" points="221.564,505.721 5.054,380.78 5,130.808 221.457,5.773 437.967,130.714 438.021,380.687 "/>
		<path style="fill:#343332;" d="M221.565,511.494L0.055,383.668L0,127.922L221.456,0l221.51,127.826l0.057,255.746L221.565,511.494z M10.054,377.893l211.509,122.055l211.458-122.146l-0.053-244.199L221.458,11.547L10.001,133.693L10.054,377.893z"/>
	</g>
	<path style="fill-rule:evenodd;clip-rule:evenodd;fill:#343332;" d="M302.445,249.378c22.389-5.237,42.777-3.444,61.089,8.905 c42.689,28.787,38.497,98.697-8.352,124.356c-33.051,18.101-67.28,16.792-99.036-4.149c-31.499-20.77-40.557-59.843-24.289-97.515 c5.469-12.661,12.713-24.285,20.731-35.435c16.819-23.388,33.836-46.637,50.544-70.105c2.985-4.192,6.022-6.215,11.421-6.08 c15.871,0.393,31.759,0.139,49.707,0.139C343.191,196.552,326.546,224.824,302.445,249.378z M308.032,350.227 c19.176,0.178,33.743-13.896,33.819-32.669c0.073-18.636-14.67-33.373-33.395-33.389c-18.58-0.013-33.738,15.068-33.556,33.389 C275.086,336.067,289.267,350.051,308.032,350.227z"/>
</svg>