<?xml version="1.0" encoding="iso-8859-1"?>
<!DOCTYPE svg PUBLIC "-//W3C//DTD SVG 1.1//EN" "http://www.w3.org/Graphics/SVG/1.1/DTD/svg11.dtd">
<svg version="1.1" id="Layer_2" xmlns="http://www.w3.org/2000/svg" xmlns:xlink="http://www.w3.org/1999/xlink" x="0px" y="0px"
	 width="443.022px" height="511.494px" viewBox="0 0 443.022 511.494" style="enable-background:new 0 0 443.022 511.494;"
	 xml:space="preserve">
<polygon style="fill:#292929;" points="221.564,505.721 5.054,380.78 5,130.808 221.457,5.773 437.967,130.714 438.021,380.687 "/>
<path style="fill:#3B3B3B;" d="M221.565,511.494L0.055,383.668L0,127.922L221.456,0l221.51,127.826l0.057,255.746L221.565,511.494z
	 M10.054,377.893l211.509,122.055l211.458-122.146l-0.053-244.199L221.458,11.547L10.001,133.693L10.054,377.893z"/>
<g style="display:none;">
	<rect x="131.477" y="159.077" style="display:inline;fill:#F7DD46;" width="61" height="196"/>
	<rect x="251.477" y="159.077" style="display:inline;fill:#F7DD46;" width="61" height="196"/>
</g>
<polygon style="fill:#F7DD46;" points="151.477,151.574 333.284,256.542 151.477,361.508 "/>
<polygon style="fill:#F7DD46;" points="433.003,133.65 433.056,377.849 433.038,377.859 443.005,383.651 443.058,383.62 
	443.001,127.875 442.946,127.843 432.985,133.64 "/>
</svg>
